<svg width="393" height="114" viewBox="0 0 393 114" fill="none" xmlns="http://www.w3.org/2000/svg">
<g clip-path="url(#clip0_320_2)">
<path d="M101.2 83.07H101.12C101.12 83.07 97.64 85.6 94.24 85.72C93.1772 85.8254 92.1041 85.7168 91.0839 85.4008C90.0638 85.0848 89.1172 84.5677 88.3 83.88C87.602 83.1582 87.055 82.3044 86.691 81.3686C86.3269 80.4328 86.1532 79.4338 86.18 78.43C86 73.77 88 67.85 91.7 62.22C94.4002 58.2407 97.4489 54.5094 100.81 51.07C101.48 50.34 102.16 49.61 102.81 48.87C102.884 48.8065 102.94 48.7259 102.975 48.6351C103.01 48.5444 103.022 48.4465 103.01 48.35C103.01 47.46 101.09 47.35 100.01 47.43C99.3782 47.4492 98.7492 47.5228 98.13 47.65C96.64 47.82 92.93 51.99 88.95 56.65C88.34 57.36 87.8 57.99 87.35 58.49C84.35 61.73 75.26 71.61 68.69 71.83C67.94 71.83 67.54 71.45 67.51 70.62C67.42 68.1 70.86 61.73 76.77 55.43C80.69 51.26 88.48 44.23 96.71 43.96H96.96C99.77 43.96 100.26 45.62 100.45 46.26C100.51 46.45 100.54 46.58 100.71 46.58C101.21 46.58 103.56 44.44 103.5 42.86C103.5 41.73 102.36 41.24 100.03 41.32C90.79 41.63 80.43 46.6 71.62 54.95C64.19 61.95 59.12 70.3 59.29 75.16C59.39 77.84 61.05 79.16 64.07 79.1C70.56 78.88 80.26 69.1 82.14 67.18C82.46 66.84 82.57 66.82 82.65 66.81C82.7086 66.7916 82.7715 66.7916 82.83 66.81C82.8629 66.8475 82.8868 66.892 82.9 66.94C80.6753 70.9944 79.5384 75.5558 79.6 80.18C79.83 86.36 82.85 89.74 88.14 89.74H88.58C92.3 89.62 96.77 87.68 101.46 84.17C101.559 84.1155 101.641 84.0339 101.696 83.9348C101.751 83.8357 101.776 83.7231 101.77 83.61C101.77 83.5369 101.755 83.4646 101.726 83.3975C101.697 83.3305 101.654 83.2702 101.601 83.2204C101.547 83.1706 101.484 83.1324 101.415 83.1083C101.346 83.0841 101.273 83.0745 101.2 83.08" fill="black"/>
<path d="M66.57 22.87C64.3663 22.9008 62.1923 22.3599 60.26 21.3L60.12 21.22L60.03 21.35C59.4171 22.3671 59.073 23.5233 59.03 24.71C59.09 26.49 60.5 27.35 63.19 27.25C72.62 26.93 78.68 19.25 78.43 12.25C78.15 5.58002 73.37 1.78002 65.57 2.00002C60.327 2.26046 55.2798 4.07397 51.07 7.21002C46.46 10.71 44.07 15.27 44.19 20.06C44.33 24.06 45.58 29.36 46.9 35C48.44 41.59 50.19 49.06 50.43 55.62C50.82 66.62 45.84 73.46 41.58 77.3C35.9392 82.2421 28.7561 85.0701 21.26 85.3C15.21 85.51 10.54 84.44 7.38002 82.13C6.02573 81.1299 4.92426 79.8267 4.16372 78.3247C3.40317 76.8227 3.00465 75.1636 3.00002 73.48C2.79002 67.85 6.00002 60.9 11.41 55.35C17.26 49.35 24.79 45.73 32.06 45.48C38.91 45.24 42.96 47.98 43.14 52.98C43.26 56.37 41.54 60.3 38.54 63.5C35.5436 66.8282 31.36 68.8464 26.89 69.12C25.0639 69.2129 23.2725 68.5966 21.89 67.4C21.2995 66.885 20.8182 66.2569 20.4747 65.5526C20.1312 64.8484 19.9323 64.0824 19.89 63.3C19.7984 62.0159 20.1948 60.7445 21 59.74L21.28 59.4L20.84 59.48C17.6 60 15.7 62 15.79 64.77C15.93 68.38 19.48 72.14 24.52 71.97C27.6395 71.8292 30.6993 71.0656 33.5193 69.7243C36.3392 68.3831 38.8623 66.4912 40.94 64.16C44.94 59.84 47.23 54.48 47.06 49.85C46.84 43.79 42.34 40.32 35.01 40.56C25.3147 40.9342 16.1495 45.0826 9.47002 52.12C3.29002 58.51 -0.239979 66.48 2.0653e-05 73.42C0.340021 82.74 7.35002 88.21 18.86 88.21H20.13C29.5549 87.9285 38.6645 84.7512 46.22 79.11C52 74.6 58.8 66.54 58.34 53.64C58.08 46.57 55.94 38.64 54.04 31.57C52.55 26 51.13 20.77 51 17.1C50.8924 15.5233 51.1505 13.9431 51.7542 12.4826C52.3578 11.022 53.2907 9.72068 54.48 8.68002C56.7731 6.78314 59.6444 5.7249 62.62 5.68002C68.02 5.50002 73.62 8.39002 73.82 14.27C74 19.49 71.3 22.7 66.57 22.86" fill="black"/>
<path d="M272.46 79.16C270.18 77.71 266.78 77.01 262.66 77.16C261.77 77.16 260.77 77.22 259.79 77.32C262.79 59.09 277.62 27.67 284.79 12.54C286.9 8.07998 288.42 4.85998 288.86 3.63998C289.013 3.32893 289.092 2.98662 289.09 2.63998C289 0.999977 287.25 0.549977 285.6 0.599977C275.46 0.939977 249.52 36.95 246.6 41.08C246.477 41.2962 246.329 41.4975 246.16 41.68C255.42 26.11 264.69 9.06998 267 4.12998C267.179 3.73312 267.277 3.30496 267.29 2.86998C267.183 2.08553 266.786 1.36971 266.177 0.864167C265.567 0.358623 264.791 0.100181 264 0.139977C256.36 0.459977 240.89 21.63 228.45 38.63C223.59 45.28 219.39 51.02 216.25 54.74C216.027 54.9559 215.756 55.1168 215.46 55.21C217.51 52.06 221.15 45.75 225.7 37.83C231.82 27.2 239.44 13.96 246.7 2.47998C246.863 2.21569 246.946 1.91024 246.94 1.59998C246.929 1.36774 246.866 1.14093 246.755 0.936574C246.644 0.732213 246.489 0.555599 246.3 0.419977C245.957 0.145608 245.529 -0.00264573 245.09 -2.27364e-05C244.936 -0.00428525 244.783 0.0311866 244.646 0.102986C244.51 0.174785 244.394 0.2805 244.31 0.409977L243.31 1.85998C241.46 3.99998 233.11 7.38998 222.18 7.99998C218.063 8.23842 213.937 8.23842 209.82 7.99998L206.82 7.86998C202.11 7.51998 197.24 6.97998 192.54 6.45998C182.42 5.31998 172 4.15998 162 4.75998C148.35 5.56998 139.89 9.26998 135.19 12.24C129.19 16 125.96 20.69 126.25 25.11C126.46 28.57 128.93 31.54 133.18 33.49C137.08 35.27 142.44 36.18 148.85 36.18H149L147.69 37.75L145.27 40.75C140.44 46.89 129.83 61.15 128.09 70.16C124.97 73.39 122.74 75.01 121.33 75.06C119.92 75.11 119.66 73.53 119.61 72.21C119.38 65.84 130.28 48.54 136.41 44.05C136.703 43.728 136.861 43.3053 136.85 42.87C136.85 42.42 136.53 42.18 136.01 42.19C129.6 42.4 113.27 57.88 106.74 64.61C112.2 55.35 118.74 46.51 118.83 46.39V46.29C118.906 46.1821 118.945 46.0521 118.94 45.92C118.94 45.23 117.94 44.92 116.06 44.98H115.78C114.1 45.04 113.4 45.06 112.32 46.51L92 75.25C91.973 75.6314 92.0267 76.0142 92.1576 76.3735C92.2885 76.7327 92.4938 77.0604 92.7599 77.335C93.026 77.6096 93.347 77.825 93.7019 77.9671C94.0569 78.1093 94.4379 78.175 94.82 78.16H94.96C97.13 78.09 99.26 75.72 100.82 73.99C101.12 73.65 101.39 73.34 101.64 73.08C108.97 65.47 124.64 49.74 126.45 49.68H126.6C120.51 56.35 112.07 68.37 112.29 74.33C112.262 74.9707 112.404 75.6074 112.703 76.1749C113.002 76.7424 113.446 77.2204 113.99 77.56C114.958 78.0728 116.046 78.3146 117.14 78.26H117.56C120.41 78.17 124.04 76.13 127.94 72.55V72.71C127.921 73.4192 128.057 74.124 128.338 74.7752C128.62 75.4264 129.04 76.0082 129.57 76.48C130.837 77.3727 132.373 77.8034 133.92 77.7H134.39C137.16 77.61 140.67 75.7 144.45 72.28C144.6 74.87 146.23 76.2 149.22 76.1C155.7 75.88 165.4 66.1 167.29 64.17C167.6 63.85 167.72 63.81 167.8 63.81C167.854 63.8043 167.908 63.8199 167.951 63.8534C167.994 63.887 168.022 63.936 168.03 63.99C165.787 68.0637 164.639 72.6499 164.7 77.3C164.92 83.48 167.95 86.86 173.24 86.86H173.67C177.4 86.74 181.86 84.8 186.55 81.29C186.65 81.2385 186.734 81.1593 186.79 81.0618C186.847 80.9643 186.875 80.8526 186.87 80.74C186.872 80.666 186.858 80.5926 186.829 80.5243C186.801 80.4561 186.758 80.3946 186.705 80.3437C186.651 80.2928 186.587 80.2538 186.517 80.229C186.448 80.2043 186.374 80.1944 186.3 80.2H186.22C186.22 80.2 182.74 82.73 179.34 82.85C178.27 82.9594 177.189 82.852 176.161 82.5341C175.134 82.2163 174.181 81.6945 173.36 81C172.662 80.2782 172.115 79.4244 171.751 78.4886C171.387 77.5528 171.213 76.5537 171.24 75.55C171.07 70.86 173.1 64.93 176.8 59.31C179.497 55.3283 182.546 51.5967 185.91 48.16C186.58 47.43 187.26 46.7 187.91 45.96C187.982 45.896 188.038 45.8149 188.071 45.7241C188.104 45.6333 188.114 45.5356 188.1 45.44C188.1 44.55 186.18 44.44 185.05 44.51C184.422 44.5345 183.797 44.608 183.18 44.73C181.68 44.91 177.98 49.09 173.99 53.73L172.4 55.56C169.4 58.8 160.3 68.68 153.73 68.9C153.573 68.9216 153.413 68.9057 153.264 68.8536C153.114 68.8014 152.979 68.7145 152.87 68.6C152.662 68.3432 152.552 68.0205 152.56 67.69C152.47 65.17 155.91 58.8 161.82 52.5C165.74 48.34 173.53 41.31 181.76 41.03C184.76 40.93 185.3 42.66 185.49 43.32C185.55 43.51 185.59 43.66 185.75 43.65C186.26 43.65 188.61 41.5 188.55 39.92C188.55 38.79 187.4 38.3 185.08 38.38C175.84 38.69 165.48 43.66 156.66 52.02C150.31 58.02 145.66 64.96 144.6 69.88C141.6 72.88 139.51 74.42 138.15 74.47C136.55 74.52 135.69 73.63 135.63 71.8C135.52 68.8 137.56 63.29 141.37 56.28C147.94 50.49 154 44.73 159 39.64L162.06 36.46C162.59 35.9 163.16 35.29 163.74 34.65C169.028 33.6336 174.243 32.2673 179.35 30.56C182.74 29.42 193.79 25.44 193.58 22.19C193.52 21.19 192.74 19.88 189.37 19.19H189.16V19.4C189.26 24.8 177.21 29.16 166.64 31.46C171.64 25.77 176.91 18.93 176.79 15.55C176.805 15.2311 176.741 14.9134 176.603 14.6254C176.465 14.3375 176.258 14.0882 176 13.9C175.313 13.504 174.518 13.336 173.73 13.42C171.05 13.51 162.61 20.42 151.57 33.2C147.604 33.1932 143.7 32.2147 140.2 30.35C136.84 28.35 134.87 25.6 134.67 22.48C134.45 18.99 136.56 15.48 140.45 12.75C145.02 9.58998 151.75 7.66998 159.93 7.17998C171.53 6.48998 183.85 7.93998 195.76 9.34998C198.68 9.68998 201.43 10.02 204.15 10.35L206.95 10.65C212.399 11.2798 217.887 11.5104 223.37 11.34C228.568 11.1419 233.718 10.2679 238.69 8.73998L236.31 12.24C235.7 13.25 225 29.92 195 72.2C194.76 72.6675 194.634 73.1846 194.63 73.71C194.69 75.52 197.05 75.71 199.58 75.6C201.95 75.52 202.58 74.95 204.72 72.54C213.58 62.38 223.12 49.54 231.54 38.31C244.06 21.55 254.87 7.08998 259 6.99998C259 6.99998 259.8 6.99998 259.82 7.50998C259.839 7.62249 259.822 7.73823 259.77 7.83998V7.83998C258.11 11.45 253.7 21.03 227.1 58.56C227.02 58.65 218.44 70.47 218.28 71.92C218.045 72.3781 217.922 72.8852 217.92 73.4C217.98 75.2 220.34 75.4 222.92 75.28C225.22 75.21 225.92 74.81 228.06 72.22C232.11 67.33 237.94 58.94 244.06 50.06C256.99 31.44 273.06 8.27998 279.56 8.05998C280.11 8.05998 280.56 8.27998 280.56 8.62998C277.88 16.23 273.21 25.75 268.26 35.82C260.64 51.33 252.76 67.37 250.92 78.82C242.13 80.72 230.78 83.93 218.77 87.33C195.26 93.98 168.61 101.52 152.15 101.8C136.09 102.07 127.08 96.85 124.56 85.86L124.51 85.66L124.32 85.74C118.65 88.33 117.5 91.6 117.54 93.88C117.6 97.22 120.25 100.61 124.81 103.16C130.23 105.968 136.267 107.37 142.37 107.24H143.14C159.65 106.96 188.64 98.81 214.22 91.63C227.97 87.76 240.97 84.11 250.59 82.08C250.555 82.7228 250.555 83.3671 250.59 84.01C250.85 91.32 255.02 94.75 263.33 94.46C271.21 94.19 275.9 89.04 275.74 84.46C275.681 83.38 275.354 82.3317 274.788 81.4099C274.223 80.488 273.436 79.7217 272.5 79.18L272.46 79.16ZM271.3 85.72C271.284 87.2518 270.682 88.7194 269.619 89.822C268.555 90.9246 267.11 91.5786 265.58 91.65C261.58 91.79 259.49 89.21 259.3 83.99C259.225 82.9146 259.225 81.8354 259.3 80.76C260.04 80.67 260.73 80.64 261.4 80.62C267.4 80.42 271.12 82.32 271.25 85.72H271.3ZM153.48 37.45C153.85 36.94 154.21 36.45 154.58 35.96C156.53 35.79 158.65 35.52 160.86 35.16C160.45 35.62 160.04 36.09 159.61 36.55L156.61 39.65C152.581 43.9502 148.332 48.039 143.88 51.9C146.14 48.06 148.64 44.2 151.31 40.43L153.48 37.45ZM156.8 33C163.75 24.09 169.63 18.66 172.58 18.56C172.635 18.543 172.695 18.543 172.75 18.56C172.784 18.6137 172.802 18.6763 172.8 18.74C172.8 20.18 169.13 25.44 163.55 31.98C161.05 32.45 158.72 32.78 156.77 32.98" fill="black"/>
<path d="M337.45 75.07H337.4C337.4 75.07 333.91 77.6 330.52 77.71H330.15C326.04 77.71 323.61 75.29 323.46 71.01C323.23 64.9 327.87 53.29 341.66 40.67C341.806 40.4566 341.892 40.208 341.91 39.95C341.91 39.02 340.4 38.89 340.34 38.89H340.29C337.089 39.4639 333.85 39.7982 330.6 39.89C328.768 40.0033 326.929 39.8517 325.14 39.44C327.32 35.51 328.39 32.62 328.33 30.84C328.353 30.5226 328.304 30.204 328.185 29.9087C328.066 29.6134 327.882 29.349 327.645 29.1359C327.409 28.9227 327.127 28.7663 326.821 28.6786C326.515 28.591 326.193 28.5743 325.88 28.63C323.551 28.7132 321.31 29.5442 319.49 31C318.689 31.5837 318.034 32.3455 317.578 33.2253C317.122 34.1052 316.876 35.079 316.86 36.07C316.91 37.68 317.77 40.07 321.48 42.07C318.688 46.9946 315.491 51.6775 311.92 56.07V56.07L311.85 56.16C304.95 64.74 300.49 68.94 298.21 69.01C297.971 69.0261 297.733 68.9746 297.523 68.8614C297.312 68.7482 297.138 68.5778 297.02 68.37C296.659 67.6936 296.477 66.9365 296.49 66.17C296.23 58.82 304.49 49.69 308.07 45.8C308.81 44.95 309.55 44.17 310.19 43.48C310.83 42.79 311.46 42.11 311.77 41.69L311.83 41.58C311.899 41.4723 311.937 41.3478 311.94 41.22C311.94 40.85 311.58 40.58 310.94 40.43C310.28 40.3114 309.609 40.2678 308.94 40.3C308.308 40.3192 307.679 40.3928 307.06 40.52C305.4 40.71 301.11 45.71 297.98 49.37C297.33 50.12 296.76 50.8 296.28 51.37C293.28 54.61 284.18 64.49 277.62 64.71C277.462 64.7299 277.303 64.7141 277.152 64.664C277.001 64.6138 276.864 64.5304 276.75 64.42C276.544 64.1581 276.435 63.8332 276.44 63.5C276.35 60.98 279.79 54.61 285.71 48.31C289.62 44.15 297.41 37.11 305.64 36.84C308.64 36.73 309.18 38.47 309.38 39.13C309.43 39.32 309.48 39.46 309.64 39.46C310.276 39.1767 310.83 38.7362 311.25 38.18C311.913 37.5233 312.33 36.658 312.43 35.73C312.426 35.4742 312.347 35.2252 312.203 35.0138C312.059 34.8023 311.856 34.6376 311.62 34.54C310.772 34.2199 309.862 34.1001 308.96 34.19C299.72 34.5 289.37 39.47 280.55 47.83C273.11 54.83 268.05 63.17 268.22 68.03C268.32 70.71 269.97 72.03 273 71.97C279.49 71.75 289.19 61.97 291.07 60.05C291.39 59.72 291.5 59.69 291.58 59.68C291.66 59.67 291.81 59.75 291.83 59.87C290.562 62.1982 289.901 64.8088 289.91 67.46C290.02 70.58 291.58 72.35 294.2 72.35H294.4C298.72 72.2 304.83 67.6 311.01 59.9L311.07 59.82C315.389 54.4167 319.405 48.7781 323.1 42.93C325.902 44.1259 328.851 44.9399 331.87 45.35C323.87 52.93 316 64.28 316.31 72.8C316.282 75.2098 317.115 77.5504 318.66 79.4C319.409 80.1797 320.315 80.7915 321.319 81.1949C322.322 81.5982 323.4 81.784 324.48 81.74H324.85C328.58 81.61 333.04 79.68 337.78 76.13C337.94 75.96 338.06 75.84 338.05 75.61C338.049 75.536 338.032 75.4631 338.001 75.3959C337.97 75.3288 337.926 75.2688 337.87 75.22C337.753 75.1205 337.604 75.0671 337.45 75.07V75.07ZM325 32.88C325.05 34.13 324.38 36.25 323.12 38.88C321.12 37.88 319.94 36.46 319.89 34.88C319.863 34.4497 319.923 34.0184 320.065 33.6117C320.208 33.2049 320.431 32.8309 320.721 32.512C321.011 32.193 321.363 31.9356 321.754 31.7548C322.145 31.5741 322.569 31.4739 323 31.46C323.478 31.4102 323.96 31.4861 324.4 31.68C324.597 31.8086 324.756 31.9879 324.86 32.199C324.963 32.4102 325.008 32.6454 324.99 32.88" fill="black"/>
<path d="M392.92 54.38C392.92 53.72 392.16 53.47 392.13 53.46H392.02L391.94 53.56C385.04 62.12 380.58 66.33 378.31 66.41C376.98 66.41 376.64 64.88 376.59 63.55C376.33 56.21 384.59 47.09 388.17 43.18C388.91 42.34 389.64 41.56 390.29 40.86C390.94 40.16 391.56 39.5 391.87 39.08C391.889 39.0477 391.906 39.0143 391.92 38.98C391.997 38.8722 392.035 38.7421 392.03 38.61C392.03 37.72 390.11 37.61 389.03 37.69C388.402 37.7098 387.776 37.7834 387.16 37.91C385.49 38.1 381.21 43.1 378.08 46.75C377.43 47.51 376.85 48.19 376.38 48.75C373.38 51.99 364.28 61.87 357.71 62.09C356.98 62.09 356.57 61.71 356.54 60.88C356.45 58.36 359.89 51.99 365.8 45.69C369.72 41.53 377.51 34.5 385.74 34.22C388.74 34.11 389.28 35.85 389.47 36.51C389.53 36.7 389.57 36.84 389.73 36.84C390.24 36.84 392.59 34.69 392.53 33.11C392.53 31.98 391.38 31.49 389.06 31.57C379.82 31.88 369.46 36.85 360.64 45.21C354.25 51.27 349.64 58.21 348.55 63.21C345.65 66.21 343.55 67.64 342.22 67.69H342.16C340.87 67.69 340.54 66.14 340.5 64.84C340.28 58.74 351.5 44.14 356.24 37.9L356.39 37.7L356.44 37.59C356.517 37.486 356.555 37.359 356.55 37.23C356.55 36.85 356.28 36.58 355.78 36.42C355.194 36.2817 354.591 36.2345 353.99 36.28C351.63 36.36 351.33 36.37 349.39 38.28C344.54 43.17 332.72 59.83 332.97 66.77C332.949 68.0634 333.417 69.317 334.28 70.28C334.686 70.6658 335.165 70.9663 335.689 71.1638C336.213 71.3613 336.771 71.4518 337.33 71.43H337.54C340.81 71.32 344.64 68.94 348.32 65.64C348.32 66.1632 348.427 66.681 348.635 67.161C348.843 67.641 349.148 68.073 349.53 68.43C350.543 69.2036 351.813 69.5613 353.08 69.43C359.57 69.21 369.26 59.43 371.14 57.51C371.46 57.18 371.58 57.14 371.66 57.14C371.693 57.1373 371.725 57.1412 371.756 57.1515C371.787 57.1618 371.816 57.1783 371.84 57.2C371.874 57.2359 371.895 57.2814 371.9 57.33C370.674 59.6161 370.022 62.166 370 64.76C370.12 67.89 371.67 69.66 374.29 69.66H374.49C379.17 69.5 386 64 392.76 55C392.89 54.8134 392.947 54.5858 392.92 54.36" fill="black"/>
<path d="M350 32.07H350.06C355.182 30.452 360.216 28.5661 365.14 26.42C365.63 26.2339 366.05 25.902 366.345 25.4693C366.64 25.0366 366.796 24.5237 366.79 24C366.73 22.29 364.86 20.44 362.27 20.53H362.19L362.14 20.59C359.56 24.02 356.4 26.5 349.62 30.43C349.13 30.69 348.9 30.97 348.91 31.31C348.916 31.3967 348.939 31.4813 348.979 31.5587C349.018 31.636 349.073 31.7045 349.14 31.76C349.387 31.9634 349.7 32.07 350.02 32.06" fill="black"/>
<path d="M291.42 110H296.56C296.89 110 297.06 110.19 297.06 110.57V112.57C297.06 112.97 296.89 113.17 296.56 113.17H287.74C287.658 113.183 287.574 113.177 287.494 113.152C287.415 113.127 287.342 113.083 287.283 113.025C287.223 112.966 287.179 112.895 287.152 112.816C287.126 112.737 287.118 112.652 287.13 112.57V98.35C287.118 98.2675 287.126 98.1834 287.152 98.1043C287.179 98.0253 287.223 97.9536 287.283 97.8952C287.342 97.8367 287.415 97.7931 287.494 97.7679C287.574 97.7427 287.658 97.7365 287.74 97.75H296.36C296.69 97.75 296.86 97.93 296.86 98.3V100.3C296.86 100.7 296.69 100.9 296.36 100.9H291.29C291.124 100.881 290.957 100.924 290.82 101.02C290.772 101.066 290.735 101.122 290.713 101.185C290.69 101.247 290.683 101.314 290.69 101.38V103.09C290.67 103.261 290.717 103.433 290.82 103.57C290.9 103.67 291.07 103.71 291.32 103.71H295.48C295.83 103.71 296.01 103.91 296.01 104.31V106.31C296.01 106.71 295.83 106.92 295.48 106.92H291.24C291.164 106.911 291.087 106.916 291.013 106.937C290.939 106.958 290.87 106.993 290.81 107.04C290.72 107.153 290.677 107.296 290.69 107.44V109.44C290.679 109.522 290.689 109.605 290.719 109.682C290.748 109.759 290.797 109.827 290.86 109.88C291.031 109.974 291.226 110.015 291.42 110Z" fill="black"/>
<path d="M312.18 108.63C312.213 109.293 312.088 109.955 311.815 110.56C311.542 111.165 311.129 111.696 310.61 112.11C309.506 112.968 308.137 113.414 306.74 113.37C304.751 113.439 302.805 112.777 301.27 111.51C301.092 111.383 300.956 111.205 300.88 111C300.887 110.772 300.972 110.553 301.12 110.38L302.12 109.03C302.37 108.8 302.55 108.68 302.66 108.69C302.845 108.733 303.019 108.815 303.17 108.93C303.716 109.309 304.312 109.612 304.94 109.83C305.477 110.054 306.049 110.183 306.63 110.21C307.92 110.21 308.56 109.77 308.56 108.88C308.551 108.608 308.467 108.343 308.317 108.115C308.167 107.888 307.957 107.706 307.71 107.59C306.814 107.109 305.872 106.717 304.9 106.42C302.58 105.66 301.42 104.23 301.42 102.16C301.395 101.526 301.517 100.895 301.775 100.316C302.033 99.7368 302.422 99.2249 302.91 98.82C303.936 97.9604 305.242 97.5083 306.58 97.55C308.14 97.4925 309.685 97.8735 311.04 98.65C311.26 98.79 311.38 98.91 311.41 99.02C311.4 99.2456 311.335 99.4654 311.22 99.66L310.49 101.11C310.46 101.193 310.413 101.269 310.351 101.333C310.289 101.396 310.214 101.445 310.131 101.476C310.049 101.508 309.96 101.521 309.872 101.515C309.783 101.508 309.697 101.483 309.62 101.44C308.7 100.992 307.701 100.727 306.68 100.66C305.53 100.66 304.95 101.12 304.95 102.04C304.946 102.282 305.024 102.518 305.17 102.71C305.346 102.941 305.576 103.127 305.84 103.25C306.06 103.369 306.287 103.476 306.52 103.57L307.23 103.82L308.23 104.14C308.43 104.21 308.74 104.33 309.16 104.52C309.504 104.661 309.838 104.824 310.16 105.01C310.439 105.193 310.706 105.393 310.96 105.61C311.239 105.833 311.476 106.104 311.66 106.41C311.834 106.729 311.978 107.064 312.09 107.41C312.185 107.809 312.215 108.221 312.18 108.63V108.63Z" fill="black"/>
<path d="M326.14 100.33C326.14 100.73 325.98 100.93 325.67 100.93H323.06C322.69 100.93 322.51 101.08 322.51 101.39L322.46 112.74C322.46 113.08 322.25 113.24 321.83 113.24H319.5C319.1 113.24 318.9 113.08 318.9 112.74V101.41C318.912 101.283 318.88 101.156 318.81 101.05C318.75 100.97 318.61 100.93 318.38 100.93H316C315.65 100.93 315.47 100.73 315.47 100.33V98.33C315.47 97.93 315.65 97.73 316 97.73H325.63C325.94 97.73 326.1 97.93 326.1 98.33L326.14 100.33Z" fill="black"/>
<path d="M331.68 113.39C331.421 113.397 331.163 113.351 330.922 113.255C330.681 113.158 330.463 113.014 330.28 112.83C330.095 112.662 329.948 112.458 329.847 112.229C329.746 112.001 329.693 111.754 329.693 111.505C329.693 111.255 329.746 111.009 329.847 110.78C329.948 110.552 330.095 110.348 330.28 110.18C330.655 109.824 331.153 109.627 331.67 109.63C331.925 109.626 332.178 109.673 332.415 109.768C332.651 109.862 332.867 110.002 333.05 110.18C333.235 110.348 333.383 110.553 333.483 110.782C333.583 111.012 333.633 111.26 333.63 111.51C333.628 111.759 333.575 112.005 333.473 112.232C333.372 112.459 333.224 112.663 333.04 112.83C332.862 113.009 332.65 113.151 332.416 113.247C332.183 113.343 331.932 113.392 331.68 113.39V113.39Z" fill="black"/>
<path d="M347.8 112.74C347.802 112.809 347.79 112.877 347.764 112.941C347.738 113.004 347.699 113.062 347.65 113.11C347.564 113.192 347.449 113.239 347.33 113.24H338.33C338.275 113.241 338.22 113.227 338.171 113.201C338.122 113.175 338.08 113.137 338.05 113.09C337.975 113 337.932 112.887 337.93 112.77V111.21C337.929 110.762 338.088 110.329 338.38 109.99L342.38 104.92C342.5 104.77 342.67 104.55 342.91 104.27L343.42 103.63C343.53 103.49 343.66 103.31 343.8 103.09C343.921 102.908 344.022 102.714 344.1 102.51C344.16 102.35 344.19 102.181 344.19 102.01C344.193 101.823 344.157 101.638 344.085 101.466C344.013 101.294 343.906 101.139 343.77 101.01C343.64 100.877 343.485 100.771 343.313 100.698C343.141 100.626 342.957 100.589 342.77 100.59C342.396 100.577 342.023 100.649 341.68 100.8C341.354 101 341.063 101.254 340.82 101.55C340.42 101.98 340.07 102.08 339.82 101.85L338.67 100.92C338.463 100.785 338.294 100.599 338.18 100.38C338.13 100.25 338.18 100.07 338.34 99.82C338.84 99.0623 339.53 98.4486 340.34 98.04C341.172 97.6783 342.073 97.5042 342.98 97.53C344.201 97.4845 345.4 97.8664 346.37 98.61C346.82 98.9777 347.177 99.4465 347.412 99.9783C347.646 100.51 347.752 101.09 347.72 101.67C347.707 102.233 347.581 102.787 347.35 103.3C347.141 103.78 346.886 104.238 346.59 104.67C346.344 105.01 345.934 105.54 345.36 106.26L342.58 109.74C342.36 110.03 342.44 110.17 342.81 110.17H347.27C347.6 110.17 347.77 110.33 347.77 110.65L347.8 112.74Z" fill="black"/>
<path d="M362.42 108.91C362.452 109.534 362.34 110.158 362.092 110.732C361.844 111.306 361.467 111.815 360.99 112.22C359.938 112.977 358.676 113.384 357.38 113.384C356.084 113.384 354.822 112.977 353.77 112.22C353.291 111.815 352.913 111.304 352.665 110.728C352.417 110.152 352.306 109.526 352.34 108.9V102C352.306 101.376 352.417 100.753 352.663 100.179C352.909 99.6048 353.285 99.0953 353.76 98.69C354.778 97.8811 356.051 97.4626 357.35 97.51C358.669 97.4624 359.962 97.8841 361 98.7C361.483 99.1002 361.865 99.6083 362.115 100.183C362.365 100.758 362.476 101.384 362.44 102.01L362.42 108.91ZM358.93 108.91V102C358.942 101.804 358.909 101.608 358.835 101.426C358.76 101.244 358.646 101.082 358.5 100.95C358.185 100.693 357.787 100.558 357.38 100.57C356.967 100.559 356.564 100.693 356.24 100.95C356.085 101.076 355.962 101.237 355.88 101.419C355.799 101.602 355.761 101.8 355.77 102V108.9C355.766 109.092 355.806 109.282 355.888 109.455C355.969 109.629 356.09 109.781 356.24 109.9C356.554 110.153 356.947 110.287 357.35 110.28C357.757 110.294 358.156 110.167 358.48 109.92C358.626 109.796 358.743 109.641 358.821 109.467C358.899 109.292 358.936 109.101 358.93 108.91V108.91Z" fill="black"/>
<path d="M374.12 112.72C374.12 113.07 373.94 113.24 373.57 113.24H371.22C370.83 113.24 370.64 113.07 370.64 112.72V102.19C370.64 101.92 370.52 101.85 370.27 101.99L368.74 102.79C368.28 103.02 368.06 102.9 368.06 102.41V100.51C368.034 100.336 368.055 100.159 368.12 99.9954C368.185 99.8321 368.292 99.6889 368.43 99.58L371 98C371.258 97.8533 371.553 97.7839 371.85 97.8H373.58C373.95 97.8 374.13 97.97 374.13 98.32L374.12 112.72Z" fill="black"/>
<path d="M391.35 108.91C391.382 109.534 391.269 110.158 391.021 110.732C390.773 111.306 390.396 111.815 389.92 112.22C388.868 112.977 387.605 113.384 386.31 113.384C385.014 113.384 383.751 112.977 382.7 112.22C382.221 111.815 381.843 111.304 381.595 110.728C381.347 110.152 381.235 109.526 381.27 108.9V102C381.236 101.376 381.346 100.753 381.593 100.179C381.839 99.6048 382.214 99.0953 382.69 98.69C383.707 97.8811 384.981 97.4626 386.28 97.51C387.591 97.4644 388.876 97.8822 389.91 98.69C390.392 99.0902 390.774 99.5983 391.024 100.173C391.274 100.748 391.386 101.374 391.35 102V108.91ZM387.86 108.91V102C387.871 101.804 387.839 101.608 387.764 101.426C387.69 101.244 387.576 101.082 387.43 100.95C387.114 100.693 386.717 100.558 386.31 100.57C385.897 100.559 385.493 100.693 385.17 100.95C385.015 101.076 384.892 101.237 384.81 101.419C384.729 101.602 384.691 101.8 384.7 102V108.9C384.695 109.092 384.736 109.282 384.817 109.455C384.899 109.629 385.019 109.781 385.17 109.9C385.484 110.153 385.877 110.287 386.28 110.28C386.687 110.294 387.086 110.167 387.41 109.92C387.556 109.796 387.672 109.641 387.75 109.467C387.828 109.292 387.866 109.101 387.86 108.91V108.91Z" fill="black"/>
</g>
<defs>
<clipPath id="clip0_320_2">
<rect width="392.93" height="113.39" fill="white"/>
</clipPath>
</defs>
</svg>
